<?xml version="1.0" encoding="UTF-8" standalone="no"?>

<svg width="32" height="32" viewBox="0 0 8.4666666 8.4666666" version="1.1" id="svg5"
    xml:space="preserve" xmlns="http://www.w3.org/2000/svg"><defs
     id="defs2" />
    <g id="layer1"><path
       style="fill:#5b3486;stroke-width:0.0928452"
       d="m 15.401487,19.532111 c -0.640101,-0.06277 -1.451281,-0.332738 -2.105826,-0.700828 -0.723011,-0.406593 -1.646378,-1.185009 -1.646378,-1.387929 0,-0.06717 -0.03754,-0.122135 -0.08341,-0.122135 -0.116948,0 -0.740684,-1.093329 -0.909915,-1.594964 -0.316121,-0.93705 -0.35471,-2.181333 -0.102902,-3.318013 0.184163,-0.831325 0.851055,-1.909342 1.623696,-2.6246711 0.610525,-0.565239 1.255087,-0.9677751 1.403137,-0.876275 0.06084,0.037603 0.08032,0.026605 0.04735,-0.026741 -0.109461,-0.1771124 1.052272,-0.5309033 1.976622,-0.6019545 2.197961,-0.1689486 4.411041,1.0883007 5.403594,3.0697786 0.484324,0.966877 0.612331,1.502891 0.613673,2.569678 9.86e-4,0.785182 -0.03788,1.119635 -0.178641,1.537333 -0.38278,1.13584 -0.960489,2.015149 -1.801358,2.741779 -0.491402,0.424642 -1.588538,1.042835 -1.911964,1.077318 -0.108447,0.01156 -0.240069,0.04753 -0.292495,0.07993 -0.122098,0.07546 -1.225336,0.235938 -1.511618,0.219879 -0.119983,-0.0067 -0.355587,-0.02571 -0.523563,-0.04219 z"
       id="path3104"
       transform="scale(0.26458333)" />
        <path style="fill:#5b3486;stroke-width:0.0928452"
            d="M 15.183335,28.175002 C 13.570894,28.021112 12.586617,27.788162 11.309944,27.258281 7.5601153,25.701918 4.7333771,22.19277 3.9730696,18.150194 3.7053637,16.726795 3.8134012,13.903688 4.1683614,13.047062 4.2184459,12.926193 4.2745562,12.736749 4.2930509,12.626073 4.4097535,11.927707 5.1185577,10.37012 5.7849784,9.3475855 6.3098368,8.5422592 7.2760155,7.4441483 7.3950171,7.5176953 c 0.050999,0.031519 0.06766,0.016751 0.037025,-0.032817 -0.073452,-0.118847 0.8559844,-0.9779571 1.689981,-1.5621081 1.3232779,-0.9268554 3.4604419,-1.7663878 5.0843159,-1.9972484 1.494479,-0.212465 3.680117,-0.1167809 4.693927,0.2054934 1.500322,0.476929 2.057465,0.6907527 2.69672,1.034964 1.062249,0.5719759 2.023336,1.2378913 1.952354,1.352743 -0.03608,0.058377 -0.01963,0.071716 0.04171,0.033811 0.123572,-0.076372 1.665496,1.440229 2.172811,2.1371255 0.935906,1.2856518 1.943358,3.3834623 1.972275,4.1068553 0.007,0.17504 0.03817,0.302816 0.06927,0.283945 0.07675,-0.04657 0.247607,0.952957 0.344539,2.015616 0.09943,1.090073 -0.02673,2.645864 -0.311363,3.839464 -0.223072,0.935459 -0.502225,1.652665 -0.603744,1.551148 -0.03432,-0.03432 -0.03798,0.0012 -0.0081,0.07898 0.124593,0.324683 -1.663388,3.301526 -1.896474,3.157472 -0.05582,-0.0345 -0.07038,-0.01863 -0.03517,0.03834 0.03446,0.05575 -0.248216,0.409921 -0.662786,0.830427 -0.854989,0.867227 -1.485793,1.354297 -2.641366,2.039509 -0.381532,0.226233 -1.296329,0.636768 -1.334301,0.598796 -0.02214,-0.02214 -0.09181,0.01132 -0.154836,0.07434 -0.169906,0.169904 -1.454981,0.551116 -2.351561,0.697579 -0.839294,0.137105 -2.392992,0.22763 -2.966858,0.172862 z M 7.3008677,22.53338 c 0.524573,-0.60761 1.1823842,-1.101617 2.0360109,-1.529016 1.2345734,-0.618133 1.3505634,-0.629026 6.6978584,-0.629026 4.512189,0 4.778608,0.0088 5.459497,0.181016 0.808363,0.204417 1.977507,0.810391 2.491558,1.291388 0.186001,0.17404 0.401971,0.37638 0.479933,0.449643 0.07796,0.07326 0.252345,0.265899 0.387517,0.428078 0.244997,0.293945 0.246311,0.294329 0.418662,0.121978 0.09509,-0.09509 0.321821,-0.415064 0.503844,-0.711049 0.182023,-0.295984 0.356848,-0.518802 0.388499,-0.49515 0.03165,0.02365 0.04145,0.02036 0.02178,-0.0073 -0.03152,-0.04433 0.530142,-1.420971 0.730791,-1.791184 0.04171,-0.07696 0.184927,-0.607064 0.318264,-1.178018 0.217608,-0.931803 0.242442,-1.198927 0.242534,-2.608788 6.3e-5,-0.985446 -0.04399,-1.782028 -0.118229,-2.137883 -0.06508,-0.311957 -0.126541,-0.645729 -0.136577,-0.741715 -0.01004,-0.09599 -0.05706,-0.272689 -0.10451,-0.392673 -0.04744,-0.119983 -0.173073,-0.453754 -0.279175,-0.741714 -0.235856,-0.640118 -0.635563,-1.554937 -0.705334,-1.61432 -0.0282,-0.024 -0.163022,-0.239967 -0.299617,-0.4799334 C 25.280977,8.975865 23.928677,7.5019272 22.83194,6.6754234 21.971612,6.0270785 20.331802,5.2410045 19.06643,4.8703547 L 17.975673,4.5508528 16.055941,4.5462156 C 14.145103,4.5416 14.131446,4.5429088 13.108233,4.8287259 12.542847,4.986657 11.934205,5.1747224 11.755695,5.246649 11.34486,5.412186 10.069214,6.0567233 9.9297098,6.1692526 9.8718205,6.2159482 9.7774021,6.2250725 9.719891,6.1895285 9.6567225,6.1504882 9.6381514,6.1618366 9.672982,6.2181937 9.7047753,6.2696362 9.5914238,6.3975232 9.4202891,6.5032902 9.249597,6.6087837 8.9096732,6.8660411 8.664903,7.0749732 8.4201327,7.2839052 8.1804394,7.4304825 8.1322509,7.4007005 8.0840625,7.3709185 8.0696564,7.3870356 8.1002373,7.4365165 8.1308182,7.4859974 8.0170422,7.6589503 7.8474018,7.8208564 7.5898868,8.0666306 6.974446,8.8023605 6.3602623,9.5986603 6.1513011,9.8695822 5.104742,12.014824 5.104742,12.172232 c 0,0.07713 -0.047121,0.187352 -0.1047126,0.244944 -0.057592,0.05759 -0.078197,0.104713 -0.04579,0.104713 0.032407,0 0.021209,0.09919 -0.024885,0.22043 -0.046094,0.121237 -0.1027663,0.307756 -0.1259381,0.414488 -0.023172,0.106731 -0.08483,0.351126 -0.1370171,0.543099 -0.1532512,0.56374 -0.2110967,3.145484 -0.089161,3.979409 0.1331514,0.910628 0.6231231,2.544697 0.9676957,3.22729 0.1432225,0.283723 0.2386576,0.515859 0.2120778,0.515859 -0.02658,0 -0.0051,0.04908 0.047723,0.109076 0.052827,0.05999 0.1623602,0.211063 0.2434068,0.335713 0.081047,0.124651 0.2783442,0.428972 0.4384391,0.67627 0.1600948,0.247297 0.3194914,0.449631 0.3542145,0.449631 0.034723,0 0.241756,-0.206898 0.4600726,-0.459774 z"
            id="path3106" transform="scale(0.26458333)" /></g></svg>
